# xmcd
#
# Track frame offsets: 
#        150
#        13828
#        24649
#        37768
#        49974
#        60566
#        73870
#        87622
#        102942
#        117586
#        129584
#        141523
#        154850
#        167664
#        177399
#        191338
#        202570
#        215192
#        226466
#        242871
#        254906
#
# Disc length: 3576 seconds
#
# Revision: 0
# Processed by: cddbd v1.5.2PL0 Copyright (c) Steve Scherf et al.
# Submitted via: ExactAudioCopy v0.99pb5
#
DISCID=3e0df615
DTITLE=Various Artist - The Roots Of The Doors
DYEAR=2009
DGENRE=Blues
TTITLE0=I'm a King Bee - Slim Harpo
TTITLE1=Mystery Train - Little Junior Parker And His Blue Flames
TTITLE2=Don't Go No Father - Muddy Waters
TTITLE3=Fever - Little Willie John
TTITLE4=Harlem Nocturne - The Viscount
TTITLE5=Summertime - Billie Holiday
TTITLE6=Alabama Song - Bertolt Brecht
TTITLE7=Baby Please Don't Go - Joe Williams' Washboard Blues Singers
TTITLE8=House Of The Risin' Sun - Leadbelly
TTITLE9=Cross Road Blues - Robert Johnson
TTITLE10=Crawling King Snake - John Lee Hooker
TTITLE11=Rock Me Mama - Arthur 'Big Boy' Crudup
TTITLE12=I Got My Mojo Working - Muddy Waters
TTITLE13=Heartbreak Hotel - Elvis Presley
TTITLE14=Close To You - Muddy Waters
TTITLE15=Who Do You Love ? - Bo Diddley
TTITLE16=Carol - Chuck Berry
TTITLE17=Me And The Devil Blues - Robert Johnson
TTITLE18=St. James Infirmary - Josh White
TTITLE19=Aura Lee - The Shelton Brothers
TTITLE20=Strange Lovin' Blues - Sara Martin
EXTD=
EXTT0=
EXTT1=
EXTT2=
EXTT3=
EXTT4=
EXTT5=
EXTT6=
EXTT7=
EXTT8=
EXTT9=
EXTT10=
EXTT11=
EXTT12=
EXTT13=
EXTT14=
EXTT15=
EXTT16=
EXTT17=
EXTT18=
EXTT19=
EXTT20=
PLAYORDER=
